# xmcd
#
# Track frame offsets:
# 150
# 9134
# 25704
# 47968
# 67607
# 76568
# 94848
# 106052
# 122557
# 136839
# 152859
# 165598
# 177383
# 192579
#
# Disc length: 3055 seconds
#
#
# Revision: 0
# Processed by: cddbd v1.4PL0 Copyright (c) Steve Scherf et al.
# Submitted via: FreeRIP 2.00 
#
DISCID=9e0bed0e
DTITLE=Doc Watson and David Grisman - Doc and Dawg
DYEAR=1997
DGENRE=Bluegrass
TTITLE0=Doc and Dawg
TTITLE1=All About You
TTITLE2=Blue Grass Stomp
TTITLE3=Summertime
TTITLE4=Sweet Georgia Brown
TTITLE5=Frankie And Johnny
TTITLE6=Soldier's Joy
TTITLE7=What Is Home Without Love
TTITLE8=Fiddle Tune Medley
TTITLE9=Kentucky Waltz
TTITLE10=In My Dear Old Southern Home
TTITLE11=Florida Blues
TTITLE12=Blue As I Can Be
TTITLE13=Watson Blues
EXTD=Acoustic Disc
EXTT0=
EXTT1=
EXTT2=
EXTT3=
EXTT4=
EXTT5=
EXTT6=
EXTT7=
EXTT8=
EXTT9=
EXTT10=
EXTT11=
EXTT12=
EXTT13=
PLAYORDER=
